<svg id="Capa_1" enable-background="new 0 0 512 512" height="512" viewBox="0 0 512 512" width="512" xmlns="http://www.w3.org/2000/svg"><g><g><path d="m510.995 328.498-6.413-11.107c4.92-19.97 7.418-40.606 7.418-61.391 0-68.379-26.629-132.666-74.981-181.019-48.353-48.352-112.64-74.981-181.019-74.981-35.493 0-69.855 7.128-102.132 21.187-31.177 13.579-58.971 32.959-82.61 57.602-2.867 2.989-2.769 7.737.221 10.604 2.988 2.867 7.736 2.768 10.604-.221 45.882-47.831 107.647-74.172 173.917-74.172 132.888 0 241 108.112 241 241 0 14.122-1.221 28.167-3.639 41.954l-12.67-21.945c-.464-.803-1.065-1.483-1.751-2.044.476-5.971.73-11.985.73-17.964 0-59.746-23.265-115.915-65.51-158.16-42.245-42.245-98.414-65.511-158.16-65.511s-115.915 23.266-158.16 65.51c-42.245 42.246-65.51 98.414-65.51 158.16 0 52.957 18.837 104.321 53.041 144.632 1.483 1.749 3.596 2.647 5.723 2.647 1.714 0 3.438-.585 4.849-1.781 3.158-2.68 3.546-7.413.866-10.571-31.907-37.603-49.479-85.521-49.479-134.927 0-115.061 93.609-208.67 208.67-208.67s208.67 93.609 208.67 208.67c0 6.339-.301 12.718-.873 19.033l-13.878 4.139c-9.752-7.905-20.565-14.164-32.237-18.659l-5.336-22.413c-.804-3.378-3.823-5.763-7.296-5.763h-60.61c-3.473 0-6.492 2.384-7.296 5.763l-5.336 22.413c-11.671 4.496-22.484 10.754-32.237 18.659l-11.371-3.391c3.55-5.758 5.604-12.533 5.604-19.781 0-11.895-5.527-22.518-14.142-29.453v-85.706c0-13.047-10.615-23.663-23.663-23.663s-23.663 10.615-23.663 23.663v85.706c-2.132 1.716-4.074 3.658-5.79 5.79h-55.401c-13.047 0-23.663 10.615-23.663 23.663s10.615 23.663 23.663 23.663h55.401c6.935 8.615 17.558 14.142 29.453 14.142.869 0 1.728-.04 2.582-.098l-20.087 34.791c-1.736 3.008-1.181 6.814 1.343 9.2l16.739 15.826c-.97 6.165-1.46 12.418-1.46 18.645s.491 12.481 1.46 18.646l-16.739 15.825c-2.524 2.386-3.079 6.192-1.343 9.2l28.025 48.542c-3.499.174-7.005.289-10.521.289-49.6 0-97.663-17.695-135.333-49.826-3.152-2.689-7.886-2.312-10.573.839-2.688 3.151-2.312 7.885.839 10.573 40.384 34.444 91.904 53.413 145.069 53.413 18.449 0 36.742-2.246 54.426-6.677 6.739 4.315 13.88 7.943 21.382 10.832l.221.929c-24.438 8.122-49.979 12.246-76.029 12.246-132.888 0-241-108.112-241-241 0-50.935 15.693-99.62 45.383-140.793 2.422-3.36 1.663-8.047-1.697-10.47-3.362-2.423-8.049-1.663-10.47 1.697-31.543 43.743-48.216 95.463-48.216 149.566 0 68.379 26.629 132.666 74.981 181.019 48.353 48.352 112.64 74.981 181.019 74.981 27.222 0 53.927-4.247 79.515-12.605l1.629 6.843c.804 3.378 3.823 5.763 7.296 5.763h60.61c3.473 0 6.492-2.384 7.296-5.763l5.336-22.413c11.671-4.496 22.484-10.754 32.237-18.659l22.132 6.601c3.327.992 6.902-.429 8.639-3.437l30.305-52.49c1.736-3.008 1.181-6.814-1.343-9.2l-16.739-15.825c.97-6.164 1.46-12.418 1.46-18.646s-.491-12.481-1.46-18.645l16.739-15.825c2.524-2.387 3.079-6.193 1.343-9.201zm-263.658-187.657c0-4.776 3.886-8.663 8.663-8.663s8.663 3.886 8.663 8.663v78.367c-2.784-.655-5.681-1.013-8.663-1.013s-5.879.358-8.663 1.013zm-76.191 123.822c-4.776 0-8.663-3.886-8.663-8.663 0-4.776 3.886-8.663 8.663-8.663h48.062c-.655 2.784-1.013 5.681-1.013 8.663 0 2.981.358 5.879 1.013 8.663zm62.049-8.663c0-12.575 10.23-22.805 22.805-22.805s22.805 10.23 22.805 22.805-10.23 22.805-22.805 22.805-22.805-10.23-22.805-22.805zm246.483 89.394c-1.864 1.763-2.698 4.355-2.211 6.874 1.266 6.544 1.907 13.24 1.907 19.901s-.642 13.357-1.907 19.901c-.487 2.519.347 5.111 2.211 6.874l15.365 14.526-24.381 42.229-20.325-6.062c-2.461-.735-5.125-.158-7.062 1.525-10.167 8.833-21.743 15.534-34.407 19.916-2.423.838-4.25 2.856-4.843 5.35l-4.899 20.572h-48.762l-4.898-20.571c-.594-2.494-2.42-4.512-4.843-5.35-12.664-4.382-24.24-11.083-34.407-19.916-1.938-1.684-4.601-2.261-7.062-1.525l-20.325 6.062-24.381-42.229 15.365-14.526c1.864-1.762 2.698-4.354 2.211-6.873-1.265-6.546-1.907-13.242-1.907-19.902s.642-13.355 1.907-19.901c.487-2.519-.347-5.111-2.211-6.874l-15.365-14.526 24.381-42.229 20.325 6.062c2.459.733 5.124.158 7.062-1.525 10.167-8.833 21.743-15.534 34.407-19.916 2.423-.839 4.25-2.856 4.843-5.351l4.898-20.571h48.762l4.898 20.571c.594 2.494 2.42 4.512 4.843 5.351 12.664 4.382 24.24 11.083 34.407 19.916 1.938 1.684 4.602 2.259 7.062 1.525l20.325-6.062 24.381 42.229z"/><path d="m450.238 345.152c-4.014 1.022-6.439 5.105-5.416 9.119 1.478 5.802 2.228 11.824 2.228 17.898 0 39.867-32.434 72.3-72.3 72.3-39.872 0-72.31-32.434-72.31-72.3s32.438-72.3 72.31-72.3c21.66 0 42 9.595 55.805 26.324 2.637 3.194 7.362 3.648 10.559 1.011 3.194-2.637 3.647-7.364 1.011-10.559-16.665-20.194-41.222-31.776-67.375-31.776-48.143 0-87.31 39.163-87.31 87.3 0 48.138 39.167 87.3 87.31 87.3 48.137 0 87.3-39.163 87.3-87.3 0-7.323-.906-14.59-2.692-21.602-1.023-4.013-5.108-6.439-9.12-5.415z"/><path d="m383.772 337.759-18.633 18.633c-9.265-8.663-23.851-8.475-32.886.56-9.225 9.226-9.225 24.238 0 33.464l16.163 16.163c4.47 4.469 10.412 6.93 16.732 6.93s12.262-2.461 16.732-6.931l35.356-35.355c9.225-9.226 9.225-24.238-.001-33.465-9.225-9.223-24.236-9.224-33.463.001zm22.858 10.606c3.378 3.377 3.378 8.874 0 12.251l-35.355 35.355c-1.637 1.636-3.812 2.538-6.126 2.538s-4.49-.901-6.126-2.537l-16.162-16.163c-3.378-3.378-3.378-8.874-.001-12.251 1.689-1.689 3.908-2.533 6.126-2.533s4.437.844 6.125 2.533l4.734 4.734c1.407 1.406 3.314 2.197 5.304 2.197s3.897-.79 5.303-2.197l23.926-23.927c3.379-3.376 8.875-3.376 12.252 0z"/><path d="m263.5 92.354v-20.204c0-4.142-3.358-7.5-7.5-7.5s-7.5 3.358-7.5 7.5v20.203c0 4.142 3.358 7.5 7.5 7.5s7.5-3.357 7.5-7.499z"/><path d="m174.184 121.78c1.272 0 2.562-.324 3.743-1.006 3.587-2.071 4.816-6.658 2.745-10.245l-10.102-17.497c-2.071-3.587-6.658-4.817-10.245-2.745-3.587 2.071-4.816 6.658-2.745 10.245l10.102 17.497c1.389 2.406 3.91 3.751 6.502 3.751z"/><path d="m110.528 180.672c1.181.682 2.471 1.006 3.743 1.006 2.592 0 5.113-1.346 6.502-3.751 2.071-3.587.842-8.174-2.745-10.245l-17.497-10.102c-3.587-2.072-8.174-.842-10.245 2.745s-.842 8.174 2.745 10.245z"/><path d="m64.65 256c0 4.142 3.358 7.5 7.5 7.5h20.203c4.142 0 7.5-3.358 7.5-7.5s-3.358-7.5-7.5-7.5h-20.203c-4.142 0-7.5 3.358-7.5 7.5z"/><path d="m334.073 120.774c1.181.682 2.471 1.006 3.743 1.006 2.592 0 5.113-1.346 6.502-3.751l10.102-17.497c2.071-3.587.842-8.174-2.745-10.245-3.588-2.072-8.174-.842-10.245 2.745l-10.102 17.497c-2.071 3.587-.842 8.174 2.745 10.245z"/><path d="m397.729 181.678c1.272 0 2.562-.324 3.743-1.006l17.497-10.102c3.587-2.071 4.816-6.658 2.745-10.245s-6.658-4.816-10.245-2.745l-17.497 10.102c-3.587 2.071-4.816 6.658-2.745 10.245 1.389 2.406 3.91 3.751 6.502 3.751z"/><path d="m96.789 355.426c1.272 0 2.562-.324 3.743-1.006l17.497-10.102c3.587-2.071 4.816-6.658 2.745-10.245s-6.659-4.817-10.245-2.745l-17.497 10.102c-3.587 2.071-4.816 6.658-2.745 10.245 1.389 2.406 3.91 3.751 6.502 3.751z"/><path d="m164.068 422.72c2.592 0 5.113-1.346 6.502-3.751l10.102-17.497c2.071-3.587.842-8.174-2.745-10.245-3.587-2.072-8.174-.842-10.245 2.745l-10.102 17.497c-2.071 3.587-.842 8.174 2.745 10.245 1.181.682 2.471 1.006 3.743 1.006z"/></g></g></svg>